<?xml version="1.0" encoding="UTF-8" standalone="no"?>
<!-- Generator: Adobe Illustrator 19.0.0, SVG Export Plug-In . SVG Version: 6.00 Build 0)  -->

<svg
   version="1.1"
   id="Layer_1"
   x="0px"
   y="0px"
   viewBox="0 0 512 512"
   style="enable-background:new 0 0 512 512;"
   xml:space="preserve"
   sodipodi:docname="miBarrio.svg"
   inkscape:export-filename="D:\Node2\react\miBarrio\mibarriov1\src\assets\icons\miBarrio.png"
   inkscape:export-xdpi="120"
   inkscape:export-ydpi="120"
   inkscape:version="1.1.2 (b8e25be833, 2022-02-05)"
   xmlns:inkscape="http://www.inkscape.org/namespaces/inkscape"
   xmlns:sodipodi="http://sodipodi.sourceforge.net/DTD/sodipodi-0.dtd"
   xmlns="http://www.w3.org/2000/svg"
   xmlns:svg="http://www.w3.org/2000/svg"><defs
   id="defs59" /><sodipodi:namedview
   id="namedview57"
   pagecolor="#ffffff"
   bordercolor="#666666"
   borderopacity="1.0"
   inkscape:pageshadow="2"
   inkscape:pageopacity="0.0"
   inkscape:pagecheckerboard="0"
   showgrid="false"
   inkscape:zoom="0.63671875"
   inkscape:cx="23.558282"
   inkscape:cy="325.10429"
   inkscape:window-width="1920"
   inkscape:window-height="1017"
   inkscape:window-x="-8"
   inkscape:window-y="-8"
   inkscape:window-maximized="1"
   inkscape:current-layer="Layer_1" />
<g
   id="g6"
   style="stroke:#000000;stroke-opacity:1;fill:#ffffff">
	<g
   id="g4"
   style="stroke:#000000;stroke-opacity:1;fill:#ffffff">
		<path
   d="M501.801,222.923h-29.172V88.409c0-1.622-0.389-3.148-1.062-4.51c-0.006-0.017-0.006-0.034-0.015-0.052l-32.454-64.909    c-1.728-3.456-5.26-5.638-9.122-5.638h-120.24c-3.815,0-7.312,2.13-9.062,5.52l-33.518,64.909    c-0.004,0.008-0.002,0.015-0.005,0.023c-0.719,1.397-1.132,2.977-1.132,4.656v134.515h-20.037V88.409    c0-1.623-0.389-3.151-1.063-4.512c-0.006-0.016-0.005-0.033-0.014-0.049L212.45,18.939c-1.728-3.456-5.26-5.638-9.122-5.638    H83.088c-3.816,0-7.312,2.13-9.062,5.52L40.507,83.729c-0.005,0.01-0.004,0.02-0.008,0.031c-0.717,1.395-1.129,2.973-1.129,4.649    v134.515H10.199C4.566,222.923,0,227.49,0,233.123c0,5.633,4.566,10.199,10.199,10.199h491.602    c5.633,0,10.199-4.566,10.199-10.199C512,227.49,507.434,222.923,501.801,222.923z M89.3,33.7h107.725l22.255,44.51H66.315    L89.3,33.7z M158.015,222.923h-30.677v-54.086h30.677V222.923z M225.584,222.925h-47.17v-64.286    c0-5.633-4.566-10.199-10.199-10.199h-51.076c-5.633,0-10.199,4.566-10.199,10.199v64.286h-47.17V98.608h165.815V222.925z     M315.948,33.7h107.725l22.255,44.51H292.963L315.948,33.7z M384.662,222.923h-30.677v-54.086h30.677V222.923z M452.232,222.925    h-47.17v-64.286c0-5.633-4.566-10.199-10.199-10.199h-51.076c-5.633,0-10.199,4.566-10.199,10.199v64.286h-47.17V98.608h165.815    V222.925z"
   id="path2"
   style="stroke:#000000;stroke-opacity:1;fill:#ffffff" />
	</g>
</g>
<g
   id="g12">
	<g
   id="g10">
		<path
   d="M501.801,478.301h-29.172V343.786c0-1.628-0.391-3.161-1.069-4.525c-0.004-0.012-0.002-0.023-0.008-0.036l-32.454-64.909    c-1.728-3.456-5.26-5.638-9.122-5.638h-120.24c-3.815,0-7.312,2.13-9.062,5.52l-33.518,64.909c-0.005,0.01-0.003,0.019-0.008,0.03    c-0.717,1.395-1.129,2.974-1.129,4.651v134.515h-20.037V343.786c0-1.623-0.389-3.152-1.064-4.514    c-0.006-0.016-0.005-0.032-0.013-0.048l-32.454-64.909c-1.728-3.456-5.26-5.638-9.122-5.638H83.088    c-3.816,0-7.312,2.13-9.062,5.52l-33.519,64.909c-0.004,0.008-0.001,0.015-0.005,0.023c-0.719,1.397-1.132,2.977-1.132,4.657    v134.515H10.199C4.566,478.301,0,482.867,0,488.501c0,5.633,4.566,10.199,10.199,10.199h491.602    c5.633,0,10.199-4.566,10.199-10.199C512,482.867,507.434,478.301,501.801,478.301z M89.3,289.078h107.725l22.255,44.51H66.315    L89.3,289.078z M158.015,478.301h-30.677v-54.086h30.677V478.301z M225.584,478.301h-47.17v-64.286    c0-5.633-4.566-10.199-10.199-10.199h-51.076c-5.633,0-10.199,4.566-10.199,10.199v64.286h-47.17V353.985h165.815V478.301z     M315.948,289.078h107.725l22.255,44.51H292.963L315.948,289.078z M384.662,478.301h-30.677v-54.086h30.677V478.301z     M452.231,478.301h-47.17v-64.286c0-5.633-4.566-10.199-10.199-10.199h-51.076c-5.633,0-10.199,4.566-10.199,10.199v64.286h-47.17    V353.985h165.815V478.301z"
   id="path8" />
	</g>
</g>
<g
   id="g18">
	<g
   id="g16">
		<path
   d="M336.87,363.382h-3.192c-5.633,0-10.199,4.566-10.199,10.199s4.566,10.199,10.199,10.199h3.192    c5.633,0,10.199-4.566,10.199-10.199S342.503,363.382,336.87,363.382z"
   id="path14" />
	</g>
</g>
<g
   id="g24">
	<g
   id="g22">
		<path
   d="M433.7,363.382h-61.716c-5.633,0-10.199,4.566-10.199,10.199s4.566,10.199,10.199,10.199H433.7    c5.633,0,10.199-4.566,10.199-10.199S439.333,363.382,433.7,363.382z"
   id="path20" />
	</g>
</g>
<g
   id="g26">
</g>
<g
   id="g28">
</g>
<g
   id="g30">
</g>
<g
   id="g32">
</g>
<g
   id="g34">
</g>
<g
   id="g36">
</g>
<g
   id="g38">
</g>
<g
   id="g40">
</g>
<g
   id="g42">
</g>
<g
   id="g44">
</g>
<g
   id="g46">
</g>
<g
   id="g48">
</g>
<g
   id="g50">
</g>
<g
   id="g52">
</g>
<g
   id="g54">
</g>
</svg>
